# xmcd
#
# Track frame offsets: 
#        150
#        15534
#        32875
#        50647
#        68368
#        83701
#        98275
#        112114
#        136109
#        154197
#        170958
#        187402
#        206599
#        226212
#
# Disc length: 3246 seconds
#
# Revision: 0
# Processed by: cddbd v1.5.2PL0 Copyright (c) Steve Scherf et al.
# Submitted via: ExactAudioCopy v1.3
#
DISCID=b80cac0e
DTITLE=Various Artist - Soul Bag Sampler, Dec 2010
DYEAR=2010
DGENRE=Blues
TTITLE0=Dr. John and The Lower 911 - Feel good music
TTITLE1=Robert Randolph and The Family Band - Travelling shoes
TTITLE2=Mavis Staples - You are not alone
TTITLE3=Solomon Burke - Oh what a feeling
TTITLE4=Alabama Mike - Ghetto life
TTITLE5=Reverend K.M. Williams - Free to roam
TTITLE6=Stan Noubar Pacha - Ready to go
TTITLE7=Little Axe - Can't sleep
TTITLE8=Sly Johnson - I'm calling you (feat. Ayo)
TTITLE9=The Golden Gate Quartet - Cry sometime
TTITLE10=Charlie Musselwhite - Sad and beautirul world
TTITLE11=Flyin' Saucers Gumbo Special - Gumbo special
TTITLE12=Bentoît Blue Boy - Fous tes merdes a la poubelle
TTITLE13=Hosea Hargrove - Caress me baby
EXTD=
EXTT0=
EXTT1=
EXTT2=
EXTT3=
EXTT4=
EXTT5=
EXTT6=
EXTT7=
EXTT8=
EXTT9=
EXTT10=
EXTT11=
EXTT12=
EXTT13=
PLAYORDER=
